<?xml version="1.0" encoding="UTF-8"?>
<svg width="512" height="512" viewBox="0 0 512 512" fill="none" xmlns="http://www.w3.org/2000/svg">
  <rect width="512" height="512" rx="128" fill="#2563eb"/>
  <path d="M128 192C128 174.327 142.327 160 160 160H352C369.673 160 384 174.327 384 192V320C384 337.673 369.673 352 352 352H160C142.327 352 128 337.673 128 320V192Z" fill="white"/>
  <path d="M160 192H352V224H160V192Z" fill="#2563eb"/>
  <rect x="176" y="240" width="64" height="24" rx="4" fill="#2563eb"/>
  <rect x="176" y="280" width="96" height="24" rx="4" fill="#2563eb"/>
  <rect x="288" y="240" width="48" height="24" rx="4" fill="#2563eb"/>
  <rect x="288" y="280" width="48" height="24" rx="4" fill="#2563eb"/>
</svg> 